<svg width="26" height="26" viewBox="0 0 26 26" fill="none" xmlns="http://www.w3.org/2000/svg">
<rect width="26" height="26" rx="6" fill="#6A6CE0"/>
<g clip-path="url(#clip0_65_2038)">
<path d="M18.8334 18.8334L17.6668 17.6668M12.7084 18.2501C13.4362 18.2501 14.1568 18.1067 14.8291 17.8282C15.5015 17.5498 16.1124 17.1416 16.627 16.627C17.1416 16.1124 17.5498 15.5015 17.8282 14.8291C18.1067 14.1568 18.2501 13.4362 18.2501 12.7084C18.2501 11.9807 18.1067 11.2601 17.8282 10.5877C17.5498 9.91537 17.1416 9.30446 16.627 8.78987C16.1124 8.27527 15.5015 7.86708 14.8291 7.58858C14.1568 7.31009 13.4362 7.16675 12.7084 7.16675C11.2387 7.16675 9.82913 7.7506 8.78986 8.78987C7.7506 9.82913 7.16675 11.2387 7.16675 12.7084C7.16675 14.1782 7.7506 15.5877 8.78986 16.627C9.82913 17.6662 11.2387 18.2501 12.7084 18.2501V18.2501Z" stroke="white" stroke-width="1.5" stroke-linecap="round" stroke-linejoin="round"/>
</g>
<defs>
<clipPath id="clip0_65_2038">
<rect width="14" height="14" fill="white" transform="translate(6 6)"/>
</clipPath>
</defs>
</svg>
